<svg  aria-hidden="true"  xmlns="http://www.w3.org/2000/svg" fill="currentColor" viewBox="0 0 20 20" class="w-6 h-6">
  <path d="M6 12L3.269 3.126A59.768 59.768 0 0121.485 12 59.77 59.77 0 013.27 20.876L5.999 12zm0 0h7.5" />
</svg>


<svg xmlns="http://www.w3.org/2000/svg" viewBox="0 0 24 24" width="20" height="20"><g id="_01_align_center" data-name="01 align center"><path d="M1.444,6.669a2,2,0,0,0-.865,3.337l3.412,3.408V20h6.593l3.435,3.43a1.987,1.987,0,0,0,1.408.588,2.034,2.034,0,0,0,.51-.066,1.978,1.978,0,0,0,1.42-1.379L23.991.021ZM2,8.592l17.028-5.02L5.993,16.586v-4Zm13.44,13.424L11.413,18h-4L20.446,4.978Z"/></g></svg>